<svg xmlns="http://www.w3.org/2000/svg" xmlns:xlink="http://www.w3.org/1999/xlink" width="220.626" height="81.631" viewBox="0 0 220.626 81.631">
  <defs>
    <clipPath id="clip-path">
      <rect id="Rectangle_120" data-name="Rectangle 120" width="220.627" height="81.631" fill="none"/>
    </clipPath>
  </defs>
  <g id="Group_211" data-name="Group 211" transform="translate(-131 -1637)">
    <g id="Group_176" data-name="Group 176" transform="translate(131 1637)" clip-path="url(#clip-path)">
      <path id="Path_104" data-name="Path 104" d="M0,46.6c0-10.659,7.485-17.86,19-17.86,9.569,0,16.012,4.738,17.481,12.318l-8.813,1.562c-.852-4.548-3.931-7.106-8.811-7.106-6.159,0-9.9,4.217-9.9,10.992,0,6.631,3.79,10.942,10.044,10.942,4.738,0,7.816-2.463,8.811-6.869l8.716,1.894c-2.085,7.342-8.291,11.8-17.718,11.8C6.964,64.267,0,57.3,0,46.6" transform="translate(0 -6.37)" fill="#fff"/>
      <path id="Path_105" data-name="Path 105" d="M86.984,63.59H78.363V49.71H62.255V63.59H53.679V29.954h8.576V43.361H78.363V29.954h8.621Z" transform="translate(-11.9 -6.64)" fill="#fff"/>
      <path id="Path_106" data-name="Path 106" d="M133.075,57.384V63.59H105.17V29.953h27.572V36.16h-19v7.3h18.192v5.969H113.744v7.959Z" transform="translate(-23.314 -6.64)" fill="#fff"/>
      <path id="Path_107" data-name="Path 107" d="M159.069,51.746,145.52,29.953h9.427l7.533,12.982a7.948,7.948,0,0,1,.947,2.179h.094a6.732,6.732,0,0,1,.949-2.179L172.1,29.953h9.239l-13.6,21.793V63.589h-8.67Z" transform="translate(-32.259 -6.64)" fill="#fff"/>
      <path id="Path_108" data-name="Path 108" d="M196.339,29.953h9.38L219.412,49.14a25.507,25.507,0,0,1,2.273,4.122h.142c0-1.421-.048-2.891-.048-4.5V29.953h7.865V63.589h-8.906L206.573,44.213a22.248,22.248,0,0,1-2.275-4.027h-.141c0,1.469.046,2.939.046,4.548V63.589h-7.864Z" transform="translate(-43.524 -6.64)" fill="#fff"/>
      <path id="Path_109" data-name="Path 109" d="M275.517,57.384V63.59H247.612V29.953h27.572V36.16h-19v7.3h18.192v5.969H256.186v7.959Z" transform="translate(-54.89 -6.64)" fill="#fff"/>
      <path id="Path_110" data-name="Path 110" d="M58.251,97.287H55.11v4.265H53.679V91.182h5.068c2.76,0,3.534,1.578,3.534,3.039A2.852,2.852,0,0,1,59.814,97.1l2.833,4.455H60.983ZM55.11,96.1h3.418c1.709,0,2.249-.905,2.249-1.884s-.539-1.84-2.235-1.84H55.11Z" transform="translate(-11.9 -20.213)" fill="#fff"/>
      <path id="Path_111" data-name="Path 111" d="M82.216,100.356v1.2H74.27V91.183h7.844v1.2H75.7v3.256h6.164v1.2H75.7v3.52Z" transform="translate(-16.464 -20.213)" fill="#fff"/>
      <path id="Path_112" data-name="Path 112" d="M93.128,98.329l1.461-.248c.351,1.476,1.476,2.5,3.666,2.5,1.709,0,2.892-.511,2.892-1.811,0-1.167-.774-1.606-2.277-1.825l-2.28-.307c-1.856-.278-2.966-1.1-2.966-2.849,0-1.824,1.578-2.978,4.252-2.978,2.555,0,4.236.978,4.687,3.037l-1.431.352c-.364-1.461-1.357-2.235-3.3-2.235-1.694,0-2.731.628-2.731,1.709,0,1.023.583,1.5,2.06,1.723l2.219.321c2.045.307,3.242,1.081,3.242,2.921,0,1.811-1.432,3.126-4.4,3.126-3.052,0-4.688-1.315-5.1-3.432" transform="translate(-20.645 -20.13)" fill="#fff"/>
      <rect id="Rectangle_117" data-name="Rectangle 117" width="1.431" height="10.37" transform="translate(89.484 70.969)" fill="#fff"/>
      <path id="Path_113" data-name="Path 113" d="M126.613,91.183h4.455c3.272,0,5.507,1.914,5.507,5.1s-2.249,5.272-5.507,5.272h-4.455Zm4.455,9.173a3.77,3.77,0,0,0,4-4.075c0-2.438-1.578-3.9-4.091-3.9h-2.935v7.975Z" transform="translate(-28.068 -20.213)" fill="#fff"/>
      <path id="Path_114" data-name="Path 114" d="M155.611,100.356v1.2h-7.946V91.183h7.844v1.2H149.1v3.256h6.164v1.2H149.1v3.52Z" transform="translate(-32.734 -20.213)" fill="#fff"/>
      <path id="Path_115" data-name="Path 115" d="M167.025,91.182h1.739l5.739,7.654a5.072,5.072,0,0,1,.657,1.183h.03c-.014-.395-.014-.774-.014-1.314V91.182h1.285v10.37H174.81L168.982,93.8a5.594,5.594,0,0,1-.657-1.138h-.03c.014.363.03.743.03,1.269v7.624h-1.3Z" transform="translate(-37.026 -20.213)" fill="#fff"/>
      <path id="Path_116" data-name="Path 116" d="M187.045,96.27c0-3.242,2.088-5.462,5.579-5.462,2.849,0,4.543,1.461,4.981,3.753l-1.49.146a3.307,3.307,0,0,0-3.563-2.687c-2.512,0-4.016,1.68-4.016,4.236a3.932,3.932,0,0,0,4.06,4.279,3.407,3.407,0,0,0,3.579-2.556l1.417.248c-.6,2.118-2.221,3.534-5.026,3.534a5.135,5.135,0,0,1-5.521-5.491" transform="translate(-41.464 -20.13)" fill="#fff"/>
      <path id="Path_117" data-name="Path 117" d="M217.406,100.356v1.2H209.46V91.183H217.3v1.2h-6.412v3.256h6.164v1.2h-6.164v3.52Z" transform="translate(-46.433 -20.213)" fill="#fff"/>
      <path id="Path_118" data-name="Path 118" d="M227.277,98.329l1.461-.248c.352,1.476,1.476,2.5,3.667,2.5,1.709,0,2.892-.511,2.892-1.811,0-1.167-.774-1.606-2.278-1.825l-2.279-.307c-1.856-.278-2.966-1.1-2.966-2.849,0-1.824,1.578-2.978,4.251-2.978,2.556,0,4.236.978,4.688,3.037l-1.431.352c-.364-1.461-1.357-2.235-3.3-2.235-1.694,0-2.73.628-2.73,1.709,0,1.023.583,1.5,2.059,1.723l2.22.321c2.045.307,3.242,1.081,3.242,2.921,0,1.811-1.431,3.126-4.4,3.126-3.053,0-4.688-1.315-5.1-3.432" transform="translate(-50.383 -20.13)" fill="#fff"/>
      <rect id="Rectangle_118" data-name="Rectangle 118" width="40.698" height="0.575" transform="translate(41.741 4.136)" fill="#fff"/>
      <rect id="Rectangle_119" data-name="Rectangle 119" width="40.012" height="0.575" transform="translate(146.108 4.123)" fill="#fff"/>
      <path id="Path_119" data-name="Path 119" d="M134.511,1.074h-3.548v8.22h-1.283V1.074h-3.547V0h8.377Z" transform="translate(-27.961 0)" fill="#fff"/>
      <path id="Path_120" data-name="Path 120" d="M150.151,9.294h-1.3V5.079h-5.943V9.294H141.63V0h1.283V4.006h5.943V0h1.3Z" transform="translate(-31.396 0)" fill="#fff"/>
      <path id="Path_121" data-name="Path 121" d="M165.038,8.221V9.293h-7.121V0h7.03V1.073H159.2V3.992h5.525V5.066H159.2V8.221Z" transform="translate(-35.007 0)" fill="#fff"/>
    </g>
  </g>
</svg>
